<svg width="48" height="51" viewBox="0 0 48 51" fill="none" xmlns="http://www.w3.org/2000/svg">
<rect width="48" height="50.2745" rx="15" fill="white"/>
<path d="M24.0049 12.2163C17.1875 12.2163 11.676 18.0025 11.676 25.1371C11.676 32.2818 17.1971 38.058 24.0049 38.058C30.8127 38.058 36.3338 32.2617 36.3338 25.1371C36.3338 17.9924 30.8223 12.2163 24.0049 12.2163ZM24.0049 33.5196C19.588 33.5196 16.0065 29.7661 16.0065 25.1371C16.0065 20.5082 19.588 16.7547 24.0049 16.7547C28.4218 16.7547 32.0033 20.5082 32.0033 25.1371C32.0033 29.7661 28.4218 33.5196 24.0049 33.5196Z" fill="#EB4F31"/>
<path d="M36.8137 14.7321C38.4046 14.7321 39.6943 13.3805 39.6943 11.7132C39.6943 10.0459 38.4046 8.69434 36.8137 8.69434C35.2228 8.69434 33.9331 10.0459 33.9331 11.7132C33.9331 13.3805 35.2228 14.7321 36.8137 14.7321Z" fill="#EB4F31"/>
<path d="M0 25.1373C0 31.97 0.0288058 32.8254 0.144029 35.5021C0.259252 38.1788 0.672134 40.0103 1.25785 41.6103C1.87237 43.2606 2.68854 44.6695 4.0232 46.0581C5.34827 47.4468 6.69254 48.3223 8.26725 48.9563C9.79396 49.5802 11.5415 50.0028 14.0956 50.1236C16.6593 50.2443 17.4755 50.2745 23.9856 50.2745C30.5053 50.2745 31.3215 50.2443 33.8756 50.1236C36.4297 50.0028 38.1772 49.5701 39.7039 48.9563C41.2787 48.3122 42.6229 47.4569 43.948 46.0581C45.2731 44.6695 46.1084 43.2606 46.7133 41.6103C47.3087 40.0103 47.7119 38.1788 47.8272 35.5021C47.9424 32.8153 47.9712 31.9599 47.9712 25.1373C47.9712 18.3045 47.9424 17.4492 47.8272 14.7724C47.7119 12.0957 47.2991 10.2642 46.7133 8.6642C46.0988 7.01388 45.2827 5.60507 43.948 4.21638C42.6325 2.81763 41.2883 1.95221 39.7135 1.31825C38.1868 0.694344 36.4393 0.2717 33.8852 0.150944C31.3215 0.0301889 30.5053 0 23.9952 0C17.4755 0 16.6593 0.0301889 14.1052 0.150944C11.5511 0.2717 9.80356 0.704407 8.27685 1.31825C6.70214 1.96228 5.35787 2.81763 4.03281 4.21638C2.70774 5.61513 1.87237 7.01388 1.26745 8.6642C0.672134 10.2642 0.259252 12.0957 0.144029 14.7724C0.0288058 17.4492 0 18.3045 0 25.1373ZM4.33047 25.1373C4.33047 18.4253 4.35927 17.6202 4.47449 14.9737C4.58012 12.5183 4.97379 11.1799 5.30026 10.3045C5.73235 9.13716 6.26045 8.29187 7.10542 7.40633C7.95039 6.52079 8.74735 5.98746 9.87077 5.5145C10.7157 5.17236 11.9928 4.75978 14.3261 4.64908C16.8514 4.52833 17.6099 4.49814 24.024 4.49814C30.4381 4.49814 31.1966 4.52833 33.7219 4.64908C36.0648 4.75978 37.3419 5.17236 38.1772 5.5145C39.2911 5.96733 40.0976 6.52079 40.9426 7.40633C41.7876 8.29187 42.2965 9.1271 42.7477 10.3045C43.0742 11.19 43.4679 12.5284 43.5735 14.9737C43.6887 17.6202 43.7175 18.4152 43.7175 25.1373C43.7175 31.8593 43.6887 32.6543 43.5735 35.3008C43.4679 37.7562 43.0742 39.0946 42.7477 39.9701C42.3157 41.1374 41.7876 41.9826 40.9426 42.8682C40.0976 43.7537 39.3007 44.2871 38.1772 44.76C37.3323 45.1022 36.0552 45.5147 33.7219 45.6254C31.1966 45.7462 30.4381 45.7764 24.024 45.7764C17.6099 45.7764 16.8514 45.7462 14.3261 45.6254C11.9832 45.5147 10.7061 45.1022 9.87077 44.76C8.75695 44.3072 7.95039 43.7537 7.10542 42.8682C6.26045 41.9826 5.75155 41.1474 5.30026 39.9701C4.97379 39.0845 4.58012 37.7461 4.47449 35.3008C4.34967 32.6543 4.33047 31.8492 4.33047 25.1373Z" fill="#EB4F31"/>
</svg>
