<svg width="48" height="48" viewBox="0 0 48 48" fill="none" xmlns="http://www.w3.org/2000/svg">
<rect width="48" height="48" rx="6" fill="#73A4A4"/>
<rect width="48" height="48" rx="6" fill="#EB4F31"/>
<g clip-path="url(#clip0_3_631)">
<path d="M10 13.7353C10 12.8344 10.3153 12.0911 10.9459 11.5056C11.5766 10.92 12.3964 10.6272 13.4054 10.6272C14.3964 10.6272 15.1982 10.9155 15.8108 11.4921C16.4414 12.0867 16.7568 12.8614 16.7568 13.8164C16.7568 14.6813 16.4505 15.402 15.8378 15.9785C15.2072 16.5731 14.3784 16.8704 13.3514 16.8704H13.3243C12.3333 16.8704 11.5315 16.5731 10.9189 15.9785C10.3063 15.384 10 14.6362 10 13.7353ZM10.3514 37.384V19.3299H16.3514V37.384H10.3514ZM19.6757 37.384H25.6757V27.3029C25.6757 26.6722 25.7478 26.1857 25.8919 25.8434C26.1441 25.2308 26.527 24.7128 27.0405 24.2894C27.5541 23.8659 28.1982 23.6542 28.973 23.6542C30.991 23.6542 32 25.0146 32 27.7353V37.384H38V27.0326C38 24.3659 37.3694 22.3434 36.1081 20.965C34.8468 19.5867 33.1802 18.8975 31.1081 18.8975C28.7838 18.8975 26.973 19.8975 25.6757 21.8975V21.9515H25.6486L25.6757 21.8975V19.3299H19.6757C19.7117 19.9065 19.7297 21.6993 19.7297 24.7083C19.7297 27.7173 19.7117 31.9425 19.6757 37.384Z" fill="white"/>
</g>
<defs>
<clipPath id="clip0_3_631">
<rect width="28" height="28" fill="white" transform="translate(10 10)"/>
</clipPath>
</defs>
</svg>
