<svg width="48" height="48" viewBox="0 0 48 48" fill="none" xmlns="http://www.w3.org/2000/svg">
<rect width="48" height="48" rx="6" fill="#EB4F31"/>
<path d="M19.6079 36.66C30.2519 36.66 36.0719 27.84 36.0719 20.196C36.0719 19.944 36.0719 19.692 36.0599 19.452C37.1879 18.636 38.1719 17.616 38.9519 16.452C37.9199 16.908 36.8039 17.22 35.6279 17.364C36.8279 16.644 37.7399 15.516 38.1719 14.16C37.0559 14.82 35.8199 15.3 34.4999 15.564C33.4439 14.436 31.9439 13.74 30.2759 13.74C27.0839 13.74 24.4919 16.332 24.4919 19.524C24.4919 19.98 24.5399 20.424 24.6479 20.844C19.8359 20.604 15.5759 18.3 12.7199 14.796C12.2279 15.648 11.9399 16.644 11.9399 17.7C11.9399 19.704 12.9599 21.48 14.5199 22.512C13.5719 22.488 12.6839 22.224 11.9039 21.792C11.9039 21.816 11.9039 21.84 11.9039 21.864C11.9039 24.672 13.8959 27 16.5479 27.54C16.0679 27.672 15.5519 27.744 15.0239 27.744C14.6519 27.744 14.2919 27.708 13.9319 27.636C14.6639 29.94 16.7999 31.608 19.3319 31.656C17.3519 33.204 14.8559 34.128 12.1439 34.128C11.6759 34.128 11.2199 34.104 10.7639 34.044C13.2959 35.7 16.3439 36.66 19.6079 36.66Z" fill="white"/>
</svg>
